OpenSim_Sub04_CSBaseline_GRF.mot
version=1
nRows=23
nColumns=19
inDegrees=no
endheader
time	lFx	lFy	lFz	lCOPx	lCOPy	lCOPz	rFx	rFy	rFz	rCOPx	rCOPy	rCOPz	lMx	lMy	lMz	rMx	rMy	rMz
40.41000000	6.09350109	-1.99900234	-18.71491018	0.00101395	0	-0.00079865	-15.08750175	663.18880243	-62.36149037	0.98522917	0	-0.39535633	0	-0.02377144	0	0	-4.16989086	0
40.42000000	6.18676215	-1.64479018	-18.60093186	0.00061118	0	-0.00047344	-12.26685619	660.71887650	-61.19592051	0.97982418	0	-0.39481819	0	-0.01447221	0	0	-4.14484607	0
40.43000000	6.21433189	-1.42906862	-18.50838479	0.00022563	0	-0.00017130	-9.72720055	658.38589450	-60.17362487	0.97430322	0	-0.39436181	0	-0.00540551	0	0	-4.13197381	0
40.44000000	6.23626262	-1.35856317	-18.45510236	0.00002083	0	-0.00001333	-7.26105810	655.86676173	-59.55154887	0.96844705	0	-0.39399697	0	-0.00054393	0	0	-4.03640814	0
40.45000000	6.29026660	-1.30596585	-18.39688227	-0.00004270	0	0.00003442	-4.68164894	653.15745827	-59.23582632	0.96232398	0	-0.39369569	0	0.00098677	0	0	-3.87760784	0
40.46000000	6.33266951	-1.27253017	-18.31348009	-0.00003994	0	0.00003128	-2.05325245	650.49463765	-58.82746139	0.95610176	0	-0.39345168	0	0.00093946	0	0	-3.70806609	0
40.47000000	6.34253453	-1.33480722	-18.25737044	-0.00002096	0	0.00001616	0.46662443	648.22305346	-58.11150957	0.95000003	0	-0.39327630	0	0.00049762	0	0	-3.49812976	0.00000000
40.48000000	6.31374435	-1.40572260	-18.21720438	-0.00000637	0	0.00000478	2.80499493	646.55470700	-56.97139703	0.94415888	0	-0.39313757	0	0.00015365	0	0	-3.27285502	-0.00000000
40.49000000	6.25085967	-1.49523980	-18.17429811	0.00000039	0	-0.00000040	5.10196661	645.32035297	-55.42260664	0.93835769	0	-0.39302047	0	-0.00000731	0	0	-3.07625138	0
40.50000000	6.18031714	-1.57702803	-18.19582909	0.00000200	0	-0.00000159	7.48391265	644.44885390	-53.84907359	0.93257481	0	-0.39292994	0	-0.00004648	0	0	-2.85606108	-0.00000000
40.51000000	6.11130006	-1.55109674	-18.24750942	0.00000151	0	-0.00000118	9.84706558	644.05763080	-52.54797992	0.92686377	0	-0.39279842	0	-0.00003560	0	0	-2.62171460	0
40.52000000	6.03806267	-1.42839755	-18.25808236	0.00000069	0	-0.00000053	12.09313880	644.19793835	-51.63198713	0.92125096	0	-0.39257685	0	-0.00001638	0	0	-2.42131715	0
40.53000000	5.97155887	-1.30999729	-18.24990499	0.00000014	0	-0.00000010	14.16823600	644.84399372	-51.25760153	0.91579106	0	-0.39230097	0	-0.00000342	0	0	-2.20374666	0
40.54000000	5.89244064	-1.23860955	-18.23313626	-0.00000012	0	0.00000008	16.11366550	645.97589795	-51.24629808	0.91045634	0	-0.39199347	0	0.00000248	0	0	-1.97356514	0.00000000
40.55000000	5.81274525	-1.26158872	-18.25862151	-0.00000020	0	0.00000013	17.88291077	647.62129378	-51.34731534	0.90529149	0	-0.39168751	0	0.00000419	0	0	-1.78353894	0
40.56000000	5.74705728	-1.32710657	-18.33316772	-0.00000016	0	0.00000010	19.43069473	649.86712601	-51.56006826	0.90038745	0	-0.39143514	0	0.00000317	0	0	-1.59694818	0
40.57000000	5.69749687	-1.34937467	-18.39726736	0.00000009	0	-0.00000005	20.84328523	652.66129157	-51.81753173	0.89573322	0	-0.39122167	0	-0.00000207	0	0	-1.42315179	0.00000000
40.58000000	5.64315263	-1.29409186	-18.43416377	0.00000075	0	-0.00000042	22.27935690	655.86111150	-52.01636639	0.89117757	0	-0.39100605	0	-0.00001495	0	0	-1.29724262	-0.00000000
40.59000000	5.57190165	-1.25364272	-18.46792322	0.00000189	0	-0.00000106	23.89029666	659.15962853	-52.25419043	0.88658896	0	-0.39079729	0	-0.00003623	0	0	-1.15674631	0
40.60000000	5.48734466	-1.27587840	-18.47894263	0.00000290	0	-0.00000164	25.66355815	662.25466195	-52.58082562	0.88205245	0	-0.39059628	0	-0.00005370	0	0	-0.99952621	0.00000000
40.61000000	5.42577969	-1.34198410	-18.46627668	0.00000172	0	-0.00000100	27.49109921	665.12501693	-53.02048168	0.87773479	0	-0.39040103	0	-0.00002697	0	0	-0.89157548	-0.00000000
40.62000000	5.40834560	-1.40128137	-18.47560236	-0.00000574	0	0.00000318	29.29079920	667.93119028	-53.71411696	0.87356091	0	-0.39023398	0	0.00012094	0	0	-0.77583694	0
40.63000000	5.39069006	-1.40015175	-18.50441906	-0.00002405	0	0.00001349	31.10251583	671.05306965	-54.60130219	0.86939727	0	-0.39007607	0	0.00047208	0	0	-0.64661617	0
